<?xml version="1.0" encoding="iso-8859-1"?>
<!-- Generator: Adobe Illustrator 19.1.0, SVG Export Plug-In . SVG Version: 6.00 Build 0)  -->
<svg version="1.1" id="Capa_1" xmlns="http://www.w3.org/2000/svg" xmlns:xlink="http://www.w3.org/1999/xlink" x="0px" y="0px"
	 viewBox="0 0 515.458 515.458" style="enable-background:new 0 0 515.458 515.458;" xml:space="preserve" fill="#950952">
<g>
	<g>
		<g>
			<path d="M85.553,458.779c-10.694-8.555-21.388-19.249-29.944-29.944l40.638-40.638l-29.944-29.944L0,424.558l8.555,14.972
				c17.11,25.666,40.638,49.193,66.304,66.304l14.972,8.555l66.304-66.304l-29.944-29.944L85.553,458.779L85.553,458.779z"/>
			<path d="M320.825,193.564c-47.055,0-85.553,38.499-85.553,85.553s38.499,85.553,85.553,85.553s85.553-38.499,85.553-85.553
				S367.88,193.564,320.825,193.564z M320.825,321.894c-23.527,0-42.777-19.249-42.777-42.777s19.249-42.777,42.777-42.777
				c23.527,0,42.777,19.249,42.777,42.777S344.352,321.894,320.825,321.894z"/>
			<path d="M278.048,1.069c-130.469,0-235.272,104.803-235.272,235.272c0,17.11,2.139,34.221,6.416,51.332l2.139,6.416
				l171.107,171.107l6.416,2.139c17.11,4.278,34.221,6.416,51.332,6.416c130.469,0,235.272-104.803,235.272-235.272
				C515.459,108.01,408.517,1.069,278.048,1.069L278.048,1.069z M278.048,428.835c-10.694,0-23.527-2.139-34.221-4.278
				L89.831,270.561c-2.139-10.694-4.278-23.527-4.278-34.221c0-106.942,85.553-192.495,192.495-192.495
				s192.495,85.553,192.495,192.495S384.99,428.835,278.048,428.835L278.048,428.835z"/>
		</g>
	</g>
</g>
<g>
</g>
<g>
</g>
<g>
</g>
<g>
</g>
<g>
</g>
<g>
</g>
<g>
</g>
<g>
</g>
<g>
</g>
<g>
</g>
<g>
</g>
<g>
</g>
<g>
</g>
<g>
</g>
<g>
</g>
</svg>
